<svg width="80" height="80" viewBox="0 0 80 80" fill="none" xmlns="http://www.w3.org/2000/svg">
<path d="M55 15C55 17.2344 54.5156 19.3594 53.625 21.2812L61.875 35.5312C58.1719 39.4844 53.4219 42.4219 48.0625 43.9062L40 30H39.8594L29.3594 48.3594C32.7188 49.4219 36.2969 50 40 50C51.0469 50 60.9062 44.8906 67.3281 36.7344C69.0469 34.7188 72.2031 34.2344 74.3594 36.0938C76.5156 37.8281 76.8594 40.9688 75.125 43.125C66.8906 53.4062 54.0781 60 40 60C34.4688 60 29.1562 59 24.2656 57.1719L15.4141 72.4531C14.6797 73.7188 13.5891 74.75 12.2781 75.4062L3.61875 79.7344C2.84375 80.125 1.92344 80.0781 1.18562 79.625C0.448594 79.1719 0 78.3594 0 77.5V68.8438C0 67.5312 0.348125 66.2344 1.00937 65.0781L10.3891 48.8906C8.38437 47.125 6.5375 45.2031 4.87187 43.125C3.14531 40.9688 3.49063 37.8281 5.64531 36.0938C7.8 34.2344 10.9469 34.7188 12.675 36.7344C13.5609 37.9844 14.5109 39.0312 15.5219 40.0156L26.375 21.2812C25.4844 19.3594 25 17.2344 25 15C25 6.71562 31.5781 0 40 0C48.2812 0 55 6.71562 55 15ZM40 20C42.7656 20 45 17.7656 45 15C45 12.2391 42.7656 10 40 10C37.2344 10 35 12.2391 35 15C35 17.7656 37.2344 20 40 20ZM58.1406 61.5469C63.3594 59.5469 68.0469 56.75 72.1562 53.2812L78.9844 65.0781C79.6562 66.2344 80 67.5312 80 68.8438V77.5C80 78.3594 79.5469 79.1719 78.8125 79.625C78.0781 80.0781 77.1562 80.125 76.375 79.7344L67.7188 75.4062C66.4062 74.75 65.3281 73.7188 64.5781 72.4531L58.1406 61.5469Z" fill="#999E9C"/>
</svg>
