<svg width="50" height="50" viewBox="0 0 50 50" fill="none" xmlns="http://www.w3.org/2000/svg">
<path d="M44.8223 32.062C43.3088 35.094 39.9631 37.5675 34.865 37.5675C28.9702 37.5675 24.7483 33.7376 22.8365 27.8332C26.0228 28.1523 29.6872 28.3917 33.7498 27.4342C40.7597 25.9182 45.8579 22.0085 45.8579 16.4232C45.8579 9.7209 39.8835 6.05057 31.9973 6.13036C22.1992 6.21015 14.6316 12.9923 13.9147 23.0458C9.29449 19.8542 12.1622 13.2316 7.38268 12.0348C5.23189 11.4763 3.47939 12.1944 2.92178 14.5083C1.96587 18.2584 5.7895 23.4447 13.835 26.1576C14.4723 36.7696 21.9602 43.8709 32.5549 43.8709C41.9546 43.8709 46.5748 37.2484 47.2121 32.7801C47.3714 31.2641 45.6189 30.945 44.8223 32.062ZM21.8806 20.8915C21.8806 14.3487 25.3856 9.16237 30.7227 9.16237C34.7057 9.16237 37.3344 12.5135 37.4141 16.4232C37.4937 21.6096 35.1836 23.3649 32.0769 24.0033C29.0499 24.6416 25.0669 24.7214 22.1196 24.482C21.9602 23.3649 21.8806 22.1681 21.8806 20.8915Z" fill="#00AC69"/>
</svg>
