<svg width="8" height="11" viewBox="0 0 8 11" fill="none" xmlns="http://www.w3.org/2000/svg">
<path d="M3.14663 0.146894C3.19308 0.100331 3.24825 0.0633877 3.309 0.0381812C3.36974 0.0129748 3.43486 0 3.50063 0C3.5664 0 3.63152 0.0129748 3.69227 0.0381812C3.75301 0.0633877 3.80819 0.100331 3.85463 0.146894L6.85463 3.14689C6.94852 3.24078 7.00126 3.36812 7.00126 3.50089C7.00126 3.63367 6.94852 3.76101 6.85463 3.85489C6.76075 3.94878 6.63341 4.00153 6.50063 4.00153C6.36786 4.00153 6.24052 3.94878 6.14663 3.85489L4.00063 1.70789V10.5009C4.00063 10.6335 3.94795 10.7607 3.85419 10.8544C3.76042 10.9482 3.63324 11.0009 3.50063 11.0009C3.36802 11.0009 3.24085 10.9482 3.14708 10.8544C3.05331 10.7607 3.00063 10.6335 3.00063 10.5009V1.70789L0.854632 3.85489C0.808144 3.90138 0.752955 3.93826 0.692215 3.96342C0.631476 3.98858 0.566376 4.00153 0.500632 4.00153C0.434888 4.00153 0.369788 3.98858 0.309048 3.96342C0.248309 3.93826 0.19312 3.90138 0.146632 3.85489C0.100144 3.80841 0.0632674 3.75322 0.0381083 3.69248C0.0129493 3.63174 -4.89829e-10 3.56664 0 3.50089C4.89831e-10 3.43515 0.0129493 3.37005 0.0381083 3.30931C0.0632674 3.24857 0.100144 3.19338 0.146632 3.14689L3.14663 0.146894Z" fill="black"/>
</svg>
