<svg width="14" height="14" viewBox="0 0 14 14" fill="none" xmlns="http://www.w3.org/2000/svg">
<path d="M8.39992 7.00001L13.2999 2.10001C13.4825 1.91372 13.5842 1.66291 13.5828 1.40208C13.5815 1.14125 13.4773 0.891484 13.2929 0.707048C13.1084 0.522612 12.8587 0.418414 12.5978 0.417096C12.337 0.415779 12.0862 0.517449 11.8999 0.700013L6.99992 5.60001L2.09992 0.700013C1.91363 0.517449 1.66282 0.415779 1.40199 0.417096C1.14116 0.418414 0.891393 0.522612 0.706956 0.707048C0.52252 0.891484 0.418322 1.14125 0.417005 1.40208C0.415687 1.66291 0.517357 1.91372 0.699921 2.10001L5.59992 7.00001L0.699921 11.9C0.517357 12.0863 0.415687 12.3371 0.417005 12.5979C0.418322 12.8588 0.52252 13.1085 0.706956 13.293C0.891393 13.4774 1.14116 13.5816 1.40199 13.5829C1.66282 13.5842 1.91363 13.4826 2.09992 13.3L6.99992 8.40001L11.8999 13.3C12.0862 13.4826 12.337 13.5842 12.5978 13.5829C12.8587 13.5816 13.1084 13.4774 13.2929 13.293C13.4773 13.1085 13.5815 12.8588 13.5828 12.5979C13.5842 12.3371 13.4825 12.0863 13.2999 11.9L8.39992 7.00001Z" fill="#000C08"/>
</svg>
