<svg width="12" height="8" viewBox="0 0 12 8" fill="none" xmlns="http://www.w3.org/2000/svg">
<path d="M5.99986 6.8126C5.92583 6.81303 5.85245 6.79884 5.78391 6.77085C5.71538 6.74286 5.65305 6.70161 5.60049 6.64948L1.10049 2.14948C1.04804 2.09703 1.00644 2.03477 0.978052 1.96624C0.949668 1.89772 0.935059 1.82427 0.935059 1.7501C0.935059 1.60031 0.994564 1.45665 1.10049 1.35073C1.20641 1.24481 1.35007 1.1853 1.49986 1.1853C1.64965 1.1853 1.79331 1.24481 1.89924 1.35073L5.99986 5.45698L10.1005 1.35073C10.2064 1.24481 10.3501 1.1853 10.4999 1.1853C10.6497 1.1853 10.7933 1.24481 10.8992 1.35073C11.0052 1.45665 11.0647 1.60031 11.0647 1.7501C11.0647 1.8999 11.0052 2.04356 10.8992 2.14948L6.39923 6.64948C6.34667 6.70161 6.28434 6.74286 6.21581 6.77085C6.14727 6.79884 6.07389 6.81303 5.99986 6.8126Z" fill="#000C08" stroke="#000C08" stroke-width="0.5"/>
</svg>
