<svg width="20" height="18" viewBox="0 0 20 18" fill="none" xmlns="http://www.w3.org/2000/svg">
<path d="M19.7767 15.2893L11.4444 1.07004C10.8065 -0.0237524 9.19663 -0.0237524 8.55442 1.07004L0.225998 15.2893C-0.41504 16.3792 0.383387 17.7503 1.66824 17.7503H18.3329C19.6126 17.7503 20.4134 16.3831 19.7767 15.2893ZM9.06147 5.56238C9.06147 5.04479 9.48141 4.62485 9.99901 4.62485C10.5166 4.62485 10.9365 5.04674 10.9365 5.56238V10.5626C10.9365 11.0802 10.5166 11.5001 10.0342 11.5001C9.55172 11.5001 9.06147 11.0821 9.06147 10.5626V5.56238ZM9.99901 15.2502C9.32086 15.2502 8.77084 14.7002 8.77084 14.0221C8.77084 13.3439 9.32047 12.7939 9.99901 12.7939C10.6775 12.7939 11.2272 13.3439 11.2272 14.0221C11.2256 14.6994 10.6787 15.2502 9.99901 15.2502Z" fill="#DB2B39"/>
</svg>
