<svg width="64" height="81" viewBox="0 0 64 81" fill="none" xmlns="http://www.w3.org/2000/svg">
<path d="M2.5 33.9462V34.0385L2.50681 34.1305C3.10018 42.1549 6.71442 49.2491 11.7229 56.1428C15.595 61.4724 20.442 66.8616 25.5581 72.5498C27.0153 74.1701 28.4944 75.8146 29.979 77.4889C31.0541 78.7014 32.9471 78.6995 34.0207 77.4892L34.0208 77.4892C35.5446 75.7712 37.0632 74.0854 38.5586 72.4251C43.9198 66.4732 48.984 60.851 52.9305 55.2622C58.0233 48.0501 61.5 40.5758 61.5 31.98C61.5 24.1608 58.3915 16.6623 52.859 11.1338C47.3265 5.60547 39.8233 2.5 32 2.5C24.1767 2.5 16.6735 5.60547 11.141 11.1338C5.60848 16.6623 2.5 24.1608 2.5 31.98V33.9462ZM30.2803 74.1712C30.2812 74.1702 30.2821 74.1692 30.283 74.1682C30.2821 74.1692 30.2812 74.1702 30.2803 74.1712Z" fill="white" stroke="#00AC69" stroke-width="5" stroke-linecap="round"/>
<path d="M43.1091 43.5393C43.1032 43.5476 43.0979 43.5567 43.0934 43.5659C42.0427 45.7287 39.7294 47.4906 36.2084 47.4906C32.2225 47.4906 29.3416 44.8756 27.9772 40.8164C27.9314 40.6802 28.0423 40.5433 28.1853 40.5575C30.3191 40.7689 32.7523 40.8953 35.4366 40.2414C40.2883 39.1569 43.8169 36.3599 43.8169 32.3643C43.8169 27.5695 39.6819 24.9438 34.2236 25.0009C27.5552 25.057 22.3795 29.7493 21.7369 36.744C21.7226 36.8998 21.5451 36.9835 21.4254 36.8828C18.6283 34.5288 20.3926 30.0545 17.1871 29.2249C15.6985 28.8253 14.4856 29.339 14.0996 30.9944C13.4431 33.6567 16.0442 37.3308 21.5259 39.2834C21.6021 39.3105 21.656 39.3817 21.6613 39.4624C22.1554 46.9797 27.32 52 34.6095 52C41.1153 52 44.3131 47.2624 44.7542 44.0658C44.8638 42.9871 43.6645 42.7555 43.1091 43.5393ZM27.2216 35.5608C27.2216 30.8802 29.6475 27.17 33.3414 27.17C36.0982 27.17 37.9176 29.5673 37.9727 32.3643C38.0278 36.0746 36.4289 37.3303 34.2787 37.787C32.2377 38.2318 29.5687 38.2975 27.5462 38.1422C27.4529 38.1351 27.3777 38.0636 27.3659 37.9708C27.2696 37.2172 27.2216 36.4139 27.2216 35.5608Z" fill="#00AC69"/>
</svg>
