<svg width="97" height="122" viewBox="0 0 97 122" fill="none" xmlns="http://www.w3.org/2000/svg">
<path d="M4.25 51.2154V51.3545L4.26031 51.4932C5.15104 63.4824 10.5763 74.0788 18.0894 84.3714C23.8981 92.3289 31.1692 100.375 38.8433 108.868C41.0293 111.287 43.2479 113.742 45.4748 116.242C47.0865 118.051 49.9152 118.048 51.5249 116.242L48.7253 113.747L51.5249 116.242C53.8106 113.677 56.0884 111.16 58.3316 108.682C66.3735 99.7955 73.9704 91.4011 79.8908 83.0565C87.5306 72.2883 92.75 61.1235 92.75 48.28C92.75 36.5959 88.083 25.3945 79.7822 17.1389C71.4822 8.88393 60.2293 4.25 48.5 4.25C36.7707 4.25 25.5178 8.88393 17.2178 17.1389C8.91703 25.3945 4.25 36.5959 4.25 48.28V51.2154Z" fill="white" stroke="#00AC69" stroke-width="7.5" stroke-linecap="round"/>
<path d="M65.0296 65.4653C65.0206 65.4779 65.0127 65.4915 65.0058 65.5054C63.4346 68.7093 59.9753 71.3195 54.7102 71.3195C48.7516 71.3195 44.4444 67.4477 42.4032 61.4375C42.3338 61.2331 42.5 61.0273 42.7148 61.0483C45.9052 61.3614 49.5429 61.5484 53.556 60.5799C60.8112 58.9731 66.0879 54.8295 66.0879 48.91C66.0879 41.8067 59.9044 37.9168 51.7422 38.0014C41.7714 38.0845 34.0323 45.0345 33.07 55.3951C33.0484 55.6281 32.7833 55.7537 32.6036 55.6039C28.4213 52.1164 31.0594 45.4881 26.266 44.2591C24.04 43.6672 22.2261 44.4282 21.649 46.8806C20.6672 50.8245 24.5565 56.2672 32.7529 59.1601C32.8675 59.2005 32.9487 59.3075 32.9568 59.4288C33.6968 70.5638 41.4195 78 52.3193 78C62.048 78 66.8299 70.9813 67.4895 66.2456C67.6534 64.6477 65.8602 64.3044 65.0296 65.4653ZM41.2714 53.6457C41.2714 46.7114 44.899 41.2148 50.4229 41.2148C54.5453 41.2148 57.2661 44.7664 57.3485 48.91C57.4309 54.4068 55.04 56.2671 51.8245 56.9437C48.7726 57.6027 44.7818 57.7 41.7575 57.47C41.6176 57.4594 41.5048 57.3523 41.4869 57.2132C41.3431 56.0976 41.2714 54.9085 41.2714 53.6457Z" fill="#00AC69"/>
</svg>
