<svg width="21" height="19" viewBox="0 0 21 19" fill="none" xmlns="http://www.w3.org/2000/svg">
<path d="M19.5834 9.55015C19.8352 9.35203 19.8383 8.9715 19.5897 8.76931L15.9144 5.77958C15.5891 5.51501 15.1023 5.74414 15.0989 6.16338L15.0829 8.123L6.58318 8.05375C6.30705 8.0515 6.08137 8.27352 6.07912 8.54966L6.07097 9.54962C6.06872 9.82576 6.29075 10.0514 6.56688 10.0537L15.0666 10.1229L15.0506 12.0826C15.0472 12.5018 15.5303 12.7388 15.8598 12.4796L19.5834 9.55015Z" fill="#00AC69"/>
<path d="M9.00047 18.0748C10.1829 18.0877 11.3561 17.8659 12.4522 17.4222C13.394 17.0409 14.2628 16.5022 15.0219 15.8304C15.2282 15.6478 15.2294 15.3308 15.0361 15.1344L14.334 14.4207C14.1403 14.2239 13.8248 14.2228 13.6149 14.4023C12.3336 15.4977 10.7192 16.0888 9.01676 16.0749C7.14683 16.0597 5.39482 15.3164 4.08364 13.9836C2.77246 12.6509 2.0578 10.887 2.07304 9.01708C2.08828 7.14714 2.83158 5.39514 4.1643 4.08395C5.49703 2.77277 7.26091 2.05812 9.13085 2.07335C10.8332 2.08723 12.4379 2.70453 13.7011 3.82068C13.9081 4.00351 14.2236 4.00762 14.4204 3.81395L15.1331 3.11274C15.3299 2.91912 15.3334 2.60145 15.1295 2.41539C13.4901 0.919926 11.3847 0.0916526 9.14714 0.0734213C6.74222 0.053826 4.47467 0.972379 2.76187 2.65848C1.04808 4.34357 0.0927005 6.59586 0.0731052 9.00078C0.0535099 11.4057 0.972066 13.6733 2.65817 15.3861C3.48491 16.2315 4.47119 16.9045 5.55988 17.366C6.64856 17.8275 7.81801 18.0685 9.00047 18.0748Z" fill="#00AC69"/>
</svg>
