<svg width="24" height="24" viewBox="0 0 24 24" fill="none" xmlns="http://www.w3.org/2000/svg">
<path d="M14.2777 8.13931C14.2777 9.39487 13.2592 11.5912 11.9999 11.5912C10.7407 11.5912 9.72217 9.39857 9.72217 8.13931C9.74588 7.55159 9.99604 6.99582 10.4203 6.58837C10.8445 6.18092 11.4099 5.95337 11.9981 5.95337C12.5863 5.95337 13.1517 6.18092 13.5759 6.58837C14.0001 6.99582 14.2503 7.55159 14.274 8.13931H14.2777Z" stroke="#808583" stroke-linecap="round" stroke-linejoin="round"/>
<path d="M7.31104 17.9911C7.31104 16.7476 7.80504 15.5549 8.68438 14.6756C9.56371 13.7963 10.7563 13.3022 11.9999 13.3022C13.2435 13.3022 14.4361 13.7963 15.3155 14.6756C16.1948 15.5549 16.6888 16.7476 16.6888 17.9911" stroke="#808583" stroke-linecap="round" stroke-linejoin="round"/>
<path d="M19.9593 9.64677C19.9593 10.7097 19.0963 12.6097 18.0333 12.6097C16.9704 12.6097 16.1074 10.6949 16.1074 9.64677C16.1074 9.13549 16.3105 8.64515 16.6721 8.28363C17.0336 7.9221 17.5239 7.71899 18.0352 7.71899C18.5465 7.71899 19.0368 7.9221 19.3983 8.28363C19.7599 8.64515 19.963 9.13549 19.963 9.64677H19.9593Z" stroke="#808583" stroke-linecap="round" stroke-linejoin="round"/>
<path d="M15.6333 14.8801C16.2225 14.4341 16.9244 14.1614 17.6601 14.0927C18.3958 14.0239 19.1361 14.1618 19.7977 14.4909C20.4594 14.82 21.016 15.3271 21.4051 15.9553C21.7941 16.5835 22.0001 17.3079 22 18.0468" stroke="#808583" stroke-linecap="round" stroke-linejoin="round"/>
<path d="M4.04081 9.64677C4.04081 10.7097 4.90378 12.6097 5.96674 12.6097C7.0297 12.6097 7.89266 10.6949 7.89266 9.64677C7.89266 9.13549 7.68956 8.64515 7.32803 8.28363C6.9665 7.9221 6.47616 7.71899 5.96489 7.71899C5.45361 7.71899 4.96327 7.9221 4.60174 8.28363C4.24021 8.64515 4.03711 9.13549 4.03711 9.64677H4.04081Z" stroke="#808583" stroke-linecap="round" stroke-linejoin="round"/>
<path d="M8.36666 14.8801C7.77749 14.4341 7.07556 14.1614 6.33985 14.0927C5.60413 14.0239 4.86382 14.1618 4.20221 14.4909C3.54061 14.82 2.98396 15.3271 2.5949 15.9553C2.20585 16.5835 1.99982 17.3079 2 18.0468" stroke="#808583" stroke-linecap="round" stroke-linejoin="round"/>
</svg>
