<svg width="32" height="32" viewBox="0 0 32 32" fill="none" xmlns="http://www.w3.org/2000/svg">
<g clip-path="url(#clip0_142_295)">
<path d="M12.6749 1H14.4889C14.2874 4.05579 17.6914 8.99376 16.3477 12.0053L15.9379 11.3416C15.6003 8.79776 13.9497 7.79556 12.6749 1Z" fill="#303DA0"/>
<path d="M12.6749 1C13.9497 7.79556 15.6003 8.79776 15.9379 11.3416L16.3477 12.0053L15.3624 11.7617C15.3624 10.5445 11.6908 5.96294 11.309 1H12.6749Z" fill="#EBFAFA"/>
<path d="M9.27109 1H11.309C11.6908 5.96294 15.3624 10.5445 15.3624 11.7617H14.8697C13.0961 9.60049 11.575 7.10833 9.27109 1Z" fill="#00AC69"/>
<path d="M18.4643 1H16.6502C16.8517 4.05579 13.4477 8.99376 14.7915 12.0053L15.2012 11.3416C15.5388 8.79776 17.1895 7.79556 18.4643 1Z" fill="#303DA0"/>
<path d="M18.4643 1C17.1895 7.79556 15.5388 8.79776 15.2012 11.3416L14.7915 12.0053L15.7767 11.7617C15.7767 10.5445 19.4483 5.96294 19.8302 1H18.4643Z" fill="#EBFAFA"/>
<path d="M21.8681 1H19.8302C19.4483 5.96294 15.7767 10.5445 15.7767 11.7617H16.2694C18.0431 9.60049 19.5642 7.10833 21.8681 1Z" fill="#00AC69"/>
<g filter="url(#filter0_i_142_295)">
<ellipse cx="16" cy="21.1121" rx="10" ry="9.88784" fill="#D8D8D8"/>
</g>
<g filter="url(#filter1_di_142_295)">
<path d="M18.7744 24.2754C18.9789 24.2754 19.138 24.3322 19.2516 24.4458C19.3697 24.5594 19.4288 24.7094 19.4288 24.8957V26H12.5713V25.3865C12.5713 25.2683 12.5963 25.1411 12.6463 25.0048C12.6963 24.8639 12.7803 24.7367 12.8985 24.623L15.8296 21.6851C16.0796 21.4351 16.3 21.1965 16.4909 20.9693C16.6817 20.7376 16.8408 20.5126 16.968 20.2945C17.0953 20.0718 17.1907 19.8469 17.2543 19.6196C17.3179 19.3924 17.3497 19.1538 17.3497 18.9039C17.3497 18.4631 17.2361 18.1291 17.0089 17.9018C16.7817 17.6701 16.4613 17.5542 16.0478 17.5542C15.866 17.5542 15.6979 17.5815 15.5433 17.636C15.3934 17.686 15.257 17.7564 15.1343 17.8473C15.0162 17.9382 14.9139 18.045 14.8276 18.1677C14.7413 18.2904 14.6776 18.4244 14.6367 18.5699C14.5549 18.7971 14.4436 18.9493 14.3027 19.0266C14.1664 19.0993 13.971 19.1152 13.7165 19.0743L12.7213 18.8971C12.794 18.4154 12.9303 17.9927 13.1303 17.6292C13.3302 17.2656 13.5802 16.9634 13.8801 16.7226C14.18 16.4817 14.5231 16.3022 14.9094 16.184C15.2957 16.0613 15.7115 16 16.1568 16C16.6249 16 17.0498 16.0704 17.4315 16.2113C17.8178 16.3476 18.1473 16.5408 18.42 16.7907C18.6926 17.0361 18.9039 17.3338 19.0539 17.6837C19.2039 18.0336 19.2789 18.4199 19.2789 18.8425C19.2789 19.2061 19.2266 19.5424 19.1221 19.8514C19.0176 20.1604 18.8744 20.4558 18.6926 20.7376C18.5154 21.0148 18.3086 21.2852 18.0723 21.5487C17.836 21.8123 17.5861 22.0782 17.3225 22.3463L15.223 24.4935C15.4547 24.4254 15.6842 24.3731 15.9114 24.3367C16.1387 24.2958 16.3522 24.2754 16.5522 24.2754H18.7744Z" fill="#898989"/>
<path d="M19.1455 24.5519L19.1455 24.5519L19.1476 24.5539C19.2322 24.6353 19.2788 24.7441 19.2788 24.8957V25.85H12.7213V25.3865C12.7213 25.2895 12.7418 25.1799 12.7871 25.0564L12.7871 25.0564L12.7876 25.0549C12.8291 24.9381 12.8994 24.8302 13.0025 24.7312L13.0025 24.7312L13.0047 24.729L15.9357 21.7911C16.1882 21.5387 16.4116 21.2969 16.6057 21.0658L16.6066 21.0647C16.8017 20.8278 16.9656 20.5963 17.0976 20.3701L17.0983 20.3689C17.2311 20.1364 17.3315 19.9001 17.3988 19.6601C17.4663 19.4189 17.4997 19.1667 17.4997 18.9039C17.4997 18.4387 17.3796 18.0608 17.1155 17.7963C16.8529 17.5288 16.4897 17.4042 16.0478 17.4042C15.8513 17.4042 15.6665 17.4336 15.4947 17.4941C15.3307 17.5489 15.1806 17.6264 15.0451 17.7268L15.045 17.7268L15.0429 17.7284C14.9127 17.8286 14.7999 17.9464 14.7049 18.0814C14.6098 18.2165 14.5394 18.3643 14.4939 18.5238C14.4189 18.7298 14.3264 18.8422 14.2314 18.8946C14.1377 18.9443 13.982 18.9649 13.7415 18.9264L12.8936 18.7754C12.9681 18.3685 13.0914 18.0111 13.2617 17.7015C13.4529 17.3537 13.6905 17.0671 13.974 16.8395C14.2583 16.6112 14.5843 16.4404 14.9533 16.3275L14.9533 16.3275L14.9548 16.327C15.325 16.2094 15.7254 16.15 16.1568 16.15C16.6098 16.15 17.0168 16.2181 17.3796 16.352L17.3796 16.3521L17.3816 16.3528C17.7509 16.4831 18.0624 16.6664 18.3186 16.9013L18.3186 16.9013L18.3196 16.9022C18.5755 17.1325 18.7743 17.4121 18.916 17.7428C19.0572 18.0721 19.1289 18.438 19.1289 18.8425C19.1289 19.1916 19.0787 19.5115 18.98 19.8033C18.8795 20.1003 18.7418 20.3846 18.5666 20.6562L18.5662 20.6568C18.3937 20.9266 18.1919 21.1906 17.9606 21.4486C17.7259 21.7104 17.4776 21.9745 17.2155 22.2411L17.2152 22.2414L15.1157 24.3887L14.7139 24.7996L15.2653 24.6374C15.4912 24.571 15.7145 24.5202 15.9351 24.4849L15.9351 24.4849L15.938 24.4844C16.1578 24.4448 16.3624 24.4254 16.5522 24.4254H18.7744C18.9505 24.4254 19.0672 24.4735 19.1455 24.5519Z" stroke="#A7A7A7" stroke-width="0.3"/>
</g>
</g>
<defs>
<filter id="filter0_i_142_295" x="6" y="11.2243" width="20" height="19.7757" filterUnits="userSpaceOnUse" color-interpolation-filters="sRGB">
<feFlood flood-opacity="0" result="BackgroundImageFix"/>
<feBlend mode="normal" in="SourceGraphic" in2="BackgroundImageFix" result="shape"/>
<feColorMatrix in="SourceAlpha" type="matrix" values="0 0 0 0 0 0 0 0 0 0 0 0 0 0 0 0 0 0 127 0" result="hardAlpha"/>
<feMorphology radius="1" operator="erode" in="SourceAlpha" result="effect1_innerShadow_142_295"/>
<feOffset/>
<feGaussianBlur stdDeviation="5"/>
<feComposite in2="hardAlpha" operator="arithmetic" k2="-1" k3="1"/>
<feColorMatrix type="matrix" values="0 0 0 0 0 0 0 0 0 0 0 0 0 0 0 0 0 0 0.08 0"/>
<feBlend mode="normal" in2="shape" result="effect1_innerShadow_142_295"/>
</filter>
<filter id="filter1_di_142_295" x="2.57129" y="6" width="26.8574" height="30" filterUnits="userSpaceOnUse" color-interpolation-filters="sRGB">
<feFlood flood-opacity="0" result="BackgroundImageFix"/>
<feColorMatrix in="SourceAlpha" type="matrix" values="0 0 0 0 0 0 0 0 0 0 0 0 0 0 0 0 0 0 127 0" result="hardAlpha"/>
<feOffset/>
<feGaussianBlur stdDeviation="5"/>
<feComposite in2="hardAlpha" operator="out"/>
<feColorMatrix type="matrix" values="0 0 0 0 0 0 0 0 0 0 0 0 0 0 0 0 0 0 0.04 0"/>
<feBlend mode="normal" in2="BackgroundImageFix" result="effect1_dropShadow_142_295"/>
<feBlend mode="normal" in="SourceGraphic" in2="effect1_dropShadow_142_295" result="shape"/>
<feColorMatrix in="SourceAlpha" type="matrix" values="0 0 0 0 0 0 0 0 0 0 0 0 0 0 0 0 0 0 127 0" result="hardAlpha"/>
<feOffset/>
<feGaussianBlur stdDeviation="0.5"/>
<feComposite in2="hardAlpha" operator="arithmetic" k2="-1" k3="1"/>
<feColorMatrix type="matrix" values="0 0 0 0 0 0 0 0 0 0 0 0 0 0 0 0 0 0 0.08 0"/>
<feBlend mode="normal" in2="shape" result="effect2_innerShadow_142_295"/>
</filter>
<clipPath id="clip0_142_295">
<rect width="32" height="32" fill="white"/>
</clipPath>
</defs>
</svg>
