<svg width="32" height="32" viewBox="0 0 32 32" fill="none" xmlns="http://www.w3.org/2000/svg">
<g clip-path="url(#clip0_142_309)">
<path d="M12.6749 1H14.4889C14.2874 4.05579 17.6914 8.99376 16.3477 12.0053L15.9379 11.3416C15.6003 8.79776 13.9497 7.79556 12.6749 1Z" fill="#303DA0"/>
<path d="M12.6749 1C13.9497 7.79556 15.6003 8.79776 15.9379 11.3416L16.3477 12.0053L15.3624 11.7617C15.3624 10.5445 11.6908 5.96294 11.309 1H12.6749Z" fill="#EBFAFA"/>
<path d="M9.27109 1H11.309C11.6908 5.96294 15.3624 10.5445 15.3624 11.7617H14.8697C13.0961 9.60049 11.575 7.10833 9.27109 1Z" fill="#00AC69"/>
<path d="M18.4643 1H16.6502C16.8517 4.05579 13.4477 8.99376 14.7915 12.0053L15.2012 11.3416C15.5388 8.79776 17.1895 7.79556 18.4643 1Z" fill="#303DA0"/>
<path d="M18.4643 1C17.1895 7.79556 15.5388 8.79776 15.2012 11.3416L14.7915 12.0053L15.7767 11.7617C15.7767 10.5445 19.4483 5.96294 19.8302 1H18.4643Z" fill="#EBFAFA"/>
<path d="M21.8681 1H19.8302C19.4483 5.96294 15.7767 10.5445 15.7767 11.7617H16.2694C18.0431 9.60049 19.5642 7.10833 21.8681 1Z" fill="#00AC69"/>
<g filter="url(#filter0_i_142_309)">
<ellipse cx="16" cy="21.1121" rx="10" ry="9.88784" fill="#D78143"/>
</g>
<g filter="url(#filter1_di_142_309)">
<path d="M12.8546 18.978C12.9265 18.5015 13.0614 18.0834 13.2592 17.7238C13.457 17.3641 13.7042 17.0652 14.0009 16.827C14.2976 16.5887 14.6348 16.4111 15.0124 16.2942C15.3945 16.1729 15.8058 16.1122 16.2464 16.1122C16.7139 16.1122 17.132 16.1796 17.5006 16.3145C17.8737 16.4448 18.1884 16.6247 18.4446 16.8539C18.7008 17.0832 18.8964 17.3507 19.0313 17.6564C19.1706 17.962 19.2403 18.2902 19.2403 18.6408C19.2403 18.951 19.2066 19.2252 19.1391 19.4635C19.0762 19.6973 18.9796 19.9018 18.8492 20.0771C18.7233 20.2524 18.566 20.4008 18.3772 20.5222C18.1929 20.6435 17.9793 20.7447 17.7366 20.8256C18.8604 21.1942 19.4224 21.9427 19.4224 23.0711C19.4224 23.57 19.3302 24.0106 19.1459 24.3927C18.9616 24.7703 18.7143 25.0872 18.4042 25.3435C18.094 25.5997 17.7321 25.793 17.3185 25.9234C16.9094 26.0492 16.4801 26.1122 16.0306 26.1122C15.5541 26.1122 15.1338 26.0582 14.7696 25.9503C14.4055 25.8425 14.0841 25.6806 13.8054 25.4648C13.5311 25.2491 13.2951 24.9793 13.0973 24.6557C12.8995 24.3275 12.7265 23.9454 12.5781 23.5094L13.4008 23.1722C13.6166 23.0823 13.8166 23.0576 14.0009 23.098C14.1897 23.1385 14.3246 23.2374 14.4055 23.3947C14.4954 23.5655 14.5898 23.7229 14.6887 23.8667C14.7921 24.0106 14.9067 24.1365 15.0326 24.2443C15.1585 24.3477 15.3001 24.4287 15.4574 24.4871C15.6193 24.5455 15.8036 24.5748 16.0104 24.5748C16.2711 24.5748 16.4981 24.5321 16.6914 24.4466C16.8847 24.3612 17.0465 24.2511 17.1769 24.1162C17.3073 23.9769 17.4039 23.8218 17.4669 23.651C17.5343 23.4756 17.568 23.3026 17.568 23.1317C17.568 22.907 17.5478 22.7047 17.5073 22.5249C17.4669 22.3405 17.3725 22.1855 17.2241 22.0596C17.0803 21.9292 16.8645 21.8303 16.5768 21.7629C16.2936 21.691 15.907 21.655 15.417 21.655V20.3468C15.826 20.3468 16.161 20.3131 16.4217 20.2457C16.6824 20.1783 16.887 20.0839 17.0353 19.9625C17.1837 19.8411 17.2848 19.695 17.3387 19.5242C17.3972 19.3534 17.4264 19.1668 17.4264 18.9645C17.4264 18.5374 17.314 18.2115 17.0893 17.9868C16.869 17.762 16.5543 17.6496 16.1452 17.6496C15.9654 17.6496 15.7991 17.6766 15.6462 17.7305C15.4979 17.78 15.363 17.8497 15.2416 17.9396C15.1248 18.0295 15.0236 18.1351 14.9382 18.2565C14.8528 18.3779 14.7899 18.5105 14.7494 18.6543C14.664 18.8791 14.5538 19.0297 14.419 19.1061C14.2841 19.178 14.0886 19.1938 13.8323 19.1533L12.8546 18.978Z" fill="#8E5511"/>
<path d="M19.2724 23.0711C19.2724 23.5513 19.1838 23.9688 19.0109 24.3272C18.8356 24.6864 18.6015 24.9859 18.3086 25.2278C18.0146 25.4707 17.6703 25.6551 17.2739 25.7802C16.88 25.9013 16.4658 25.9622 16.0306 25.9622C15.565 25.9622 15.1595 25.9094 14.8122 25.8065C14.4648 25.7036 14.1605 25.55 13.8977 25.3466C13.6389 25.1429 13.4147 24.8873 13.2256 24.5778C13.0545 24.2939 12.9014 23.9663 12.7668 23.5941L13.4577 23.311L13.4585 23.3107C13.6527 23.2297 13.821 23.2121 13.9688 23.2445L13.9695 23.2447C14.1189 23.2767 14.2138 23.35 14.2721 23.4633L14.2721 23.4633L14.2728 23.4646C14.3651 23.6401 14.4625 23.8025 14.5651 23.9517L14.5651 23.9517L14.5669 23.9543C14.6768 24.1072 14.7994 24.242 14.935 24.3582L14.935 24.3583L14.9374 24.3603C15.0765 24.4745 15.2327 24.5637 15.4052 24.6277L15.4065 24.6282C15.5876 24.6936 15.7896 24.7248 16.0104 24.7248C16.2872 24.7248 16.5357 24.6794 16.752 24.5838C16.9608 24.4916 17.1393 24.3709 17.2848 24.2205L17.2848 24.2205L17.2865 24.2187C17.4296 24.0657 17.537 23.8939 17.6072 23.7038C17.6804 23.5134 17.718 23.3224 17.718 23.1317C17.718 22.8984 17.697 22.6849 17.6537 22.4923C17.6061 22.2758 17.4944 22.0929 17.323 21.9468C17.1533 21.7938 16.9113 21.6874 16.6124 21.6172C16.3428 21.5489 15.993 21.5129 15.567 21.5062V20.4953C15.9174 20.4879 16.2157 20.4539 16.4592 20.3909C16.7331 20.3201 16.9598 20.2181 17.1303 20.0786C17.2991 19.9405 17.4178 19.7709 17.4812 19.5711C17.5452 19.3833 17.5764 19.1807 17.5764 18.9645C17.5764 18.5121 17.457 18.1427 17.1959 17.8812C16.9396 17.6201 16.5817 17.4996 16.1452 17.4996C15.9507 17.4996 15.7677 17.5287 15.5976 17.5886C15.4352 17.6429 15.2866 17.7196 15.1524 17.819L15.1523 17.819L15.1502 17.8207C15.0212 17.9199 14.9096 18.0365 14.8155 18.1702C14.7216 18.3036 14.652 18.4495 14.6069 18.607C14.5284 18.8111 14.4369 18.9228 14.3467 18.9747C14.2546 19.023 14.0992 19.0434 13.8572 19.0054L13.0269 18.8565C13.1007 18.4547 13.2225 18.1018 13.3906 17.7961C13.5797 17.4523 13.8146 17.1689 14.0948 16.9439C14.3762 16.7179 14.6964 16.5491 15.0567 16.4375L15.0567 16.4375L15.0578 16.4372C15.4238 16.3209 15.8197 16.2622 16.2464 16.2622C16.6996 16.2622 17.0997 16.3276 17.449 16.4553L17.449 16.4554L17.4511 16.4561C17.8083 16.5809 18.1051 16.7514 18.3446 16.9657C18.5854 17.1812 18.768 17.4313 18.894 17.7169L18.894 17.7169L18.8948 17.7186C19.0248 18.0039 19.0903 18.3107 19.0903 18.6408C19.0903 18.9405 19.0577 19.2005 18.9948 19.4226L18.9948 19.4226L18.9943 19.4245C18.9357 19.642 18.8468 19.829 18.7288 19.9876L18.7288 19.9876L18.7273 19.9896C18.6129 20.149 18.4696 20.2844 18.2961 20.396L18.2961 20.396L18.2947 20.3969C18.1228 20.5101 17.9214 20.6059 17.6892 20.6833L17.2588 20.8268L17.6898 20.9681C18.2303 21.1454 18.6228 21.4096 18.881 21.7535C19.1387 22.0968 19.2724 22.5325 19.2724 23.0711Z" stroke="#A76319" stroke-width="0.3"/>
</g>
</g>
<defs>
<filter id="filter0_i_142_309" x="6" y="11.2243" width="20" height="19.7757" filterUnits="userSpaceOnUse" color-interpolation-filters="sRGB">
<feFlood flood-opacity="0" result="BackgroundImageFix"/>
<feBlend mode="normal" in="SourceGraphic" in2="BackgroundImageFix" result="shape"/>
<feColorMatrix in="SourceAlpha" type="matrix" values="0 0 0 0 0 0 0 0 0 0 0 0 0 0 0 0 0 0 127 0" result="hardAlpha"/>
<feMorphology radius="1" operator="erode" in="SourceAlpha" result="effect1_innerShadow_142_309"/>
<feOffset/>
<feGaussianBlur stdDeviation="5"/>
<feComposite in2="hardAlpha" operator="arithmetic" k2="-1" k3="1"/>
<feColorMatrix type="matrix" values="0 0 0 0 0 0 0 0 0 0 0 0 0 0 0 0 0 0 0.08 0"/>
<feBlend mode="normal" in2="shape" result="effect1_innerShadow_142_309"/>
</filter>
<filter id="filter1_di_142_309" x="2.57812" y="6.11218" width="26.8442" height="30" filterUnits="userSpaceOnUse" color-interpolation-filters="sRGB">
<feFlood flood-opacity="0" result="BackgroundImageFix"/>
<feColorMatrix in="SourceAlpha" type="matrix" values="0 0 0 0 0 0 0 0 0 0 0 0 0 0 0 0 0 0 127 0" result="hardAlpha"/>
<feOffset/>
<feGaussianBlur stdDeviation="5"/>
<feComposite in2="hardAlpha" operator="out"/>
<feColorMatrix type="matrix" values="0 0 0 0 0 0 0 0 0 0 0 0 0 0 0 0 0 0 0.04 0"/>
<feBlend mode="normal" in2="BackgroundImageFix" result="effect1_dropShadow_142_309"/>
<feBlend mode="normal" in="SourceGraphic" in2="effect1_dropShadow_142_309" result="shape"/>
<feColorMatrix in="SourceAlpha" type="matrix" values="0 0 0 0 0 0 0 0 0 0 0 0 0 0 0 0 0 0 127 0" result="hardAlpha"/>
<feOffset/>
<feGaussianBlur stdDeviation="0.5"/>
<feComposite in2="hardAlpha" operator="arithmetic" k2="-1" k3="1"/>
<feColorMatrix type="matrix" values="0 0 0 0 0 0 0 0 0 0 0 0 0 0 0 0 0 0 0.04 0"/>
<feBlend mode="normal" in2="shape" result="effect2_innerShadow_142_309"/>
</filter>
<clipPath id="clip0_142_309">
<rect width="32" height="32" fill="white"/>
</clipPath>
</defs>
</svg>
