<svg width="42" height="42" viewBox="0 0 42 42" fill="none" xmlns="http://www.w3.org/2000/svg">
<g clip-path="url(#clip0_142_533)">
<circle cx="21" cy="21" r="21" fill="#e6f5fc"/>
<g opacity="0.7">
<path d="M20.9998 20.4118C23.5988 20.4118 25.7057 18.3049 25.7057 15.7059C25.7057 13.1069 23.5988 11 20.9998 11C18.4008 11 16.2939 13.1069 16.2939 15.7059C16.2939 18.3049 18.4008 20.4118 20.9998 20.4118Z" fill="#0094e0"/>
<path d="M30.4114 28.6471V29.8236C30.4114 30.1356 30.2875 30.4348 30.0668 30.6554C29.8462 30.8761 29.547 31 29.235 31H12.7644C12.4523 31 12.1531 30.8761 11.9325 30.6554C11.7118 30.4348 11.5879 30.1356 11.5879 29.8236V28.6471C11.5879 26.775 12.3316 24.9795 13.6554 23.6557C14.9792 22.332 16.7746 21.5883 18.6467 21.5883H23.3526C25.2247 21.5883 27.0202 22.332 28.3439 23.6557C29.6677 24.9795 30.4114 26.775 30.4114 28.6471Z" fill="#0094e0"/>
</g>
</g>
<defs>
<clipPath id="clip0_142_533">
<rect width="42" height="42" fill="white"/>
</clipPath>
</defs>
</svg>
