<svg width="42" height="42" viewBox="0 0 42 42" fill="none" xmlns="http://www.w3.org/2000/svg">
<circle cx="21" cy="21" r="21" fill="#E6FAF2"/>
<path d="M21.7093 10.3379C21.6161 10.2446 21.5054 10.1705 21.3836 10.12C21.2617 10.0695 21.1311 10.0435 20.9992 10.0435C20.8673 10.0435 20.7367 10.0695 20.6149 10.12C20.493 10.1705 20.3823 10.2446 20.2892 10.3379L11.2501 19.377C11.1097 19.5174 11.0141 19.6964 10.9753 19.8912C10.9366 20.086 10.9565 20.2879 11.0325 20.4714C11.1085 20.6548 11.2372 20.8117 11.4023 20.922C11.5674 21.0324 11.7616 21.0913 11.9602 21.0914H12.9645V28.1217C12.9645 29.2295 13.8654 30.1304 14.9732 30.1304H27.0252C28.133 30.1304 29.0339 29.2295 29.0339 28.1217V21.0914H30.0383C30.2371 21.0918 30.4316 21.0332 30.597 20.9229C30.7624 20.8126 30.8914 20.6557 30.9674 20.472C31.0435 20.2883 31.0633 20.0861 31.0243 19.8912C30.9853 19.6962 30.8892 19.5172 30.7483 19.377L21.7093 10.3379ZM27.0263 28.1217H14.9732V18.4942L20.9992 12.4681L27.0252 18.4942V23.1L27.0263 28.1217Z" fill="#00AC69" fill-opacity="0.7"/>
<path d="M27.0263 28.1217H14.9732V18.4942L20.9992 12.4681L27.0252 18.4942V23.1L27.0263 28.1217Z" fill="#00AC69" fill-opacity="0.7"/>
<path d="M22.0036 18.0784H19.9949V21.0914H16.9819V23.1001H19.9949V26.1131H22.0036V23.1001H25.0166V21.0914H22.0036V18.0784Z" fill="#E6FAF2"/>
</svg>
