<svg width="42" height="42" viewBox="0 0 42 42" fill="none" xmlns="http://www.w3.org/2000/svg">
<g clip-path="url(#clip0_142_567)">
<circle cx="21" cy="21" r="21" fill="#E6F5FC"/>
<path opacity="0.7" d="M32.25 21.9162H32.2502L32.2498 21.9063C32.1797 20.1323 30.7414 18.7122 28.9392 18.7122C28.0206 18.7122 27.2264 19.1664 26.6676 19.7812C26.1115 20.3931 25.7653 21.1893 25.7653 21.9162C25.7653 23.0202 26.2266 23.8204 26.7997 24.3479C27.2738 24.7843 27.8299 25.0389 28.2718 25.1266C28.1537 27.9535 25.7456 30.2757 22.8555 30.2757C21.3855 30.2757 20.1078 29.5994 19.1937 28.641C18.2762 27.6791 17.7449 26.454 17.7449 25.3883V22.602C18.5176 22.5091 19.4376 22.0054 20.1821 21.2759C21.0159 20.459 21.6792 19.3118 21.6792 18.0206V13.2115C21.6792 12.7588 21.4911 12.394 21.2407 12.1441C20.9968 11.9007 20.6764 11.75 20.3889 11.75H18.6819C18.3847 11.75 18.1459 11.8674 17.9861 12.0572C17.8311 12.2413 17.7635 12.4773 17.7667 12.7019C17.7699 12.9265 17.8441 13.1595 17.9983 13.3405C18.1568 13.5267 18.3912 13.6466 18.6819 13.6466H19.7655V18.0206C19.7655 18.6426 19.4095 19.3509 18.8351 19.9048C18.2629 20.4565 17.5116 20.8182 16.7694 20.7944C15.2343 20.745 13.8361 19.5143 13.7036 18.0098V13.6466H14.8094C15.0918 13.6466 15.3134 13.5194 15.4575 13.3295C15.5961 13.1467 15.6569 12.9157 15.6561 12.6975C15.6554 12.4792 15.5931 12.2489 15.4546 12.0669C15.3109 11.878 15.0904 11.75 14.8094 11.75H13.2182C12.7192 11.75 12.3447 11.9537 12.0992 12.2465C11.8595 12.5324 11.75 12.8936 11.75 13.2115V18.0206C11.75 19.4287 12.4607 20.5781 13.3289 21.3683C14.0967 22.0671 15.0206 22.5141 15.7424 22.6017V25.3883C15.7424 28.373 18.4091 32.0575 22.8447 32.2498L22.8552 32.2502L22.8657 32.2498C27.4955 32.0607 30.1371 28.7519 30.2149 24.9871C31.3595 24.5083 32.25 23.442 32.25 21.9162ZM28.9392 20.7269C29.6812 20.7269 30.2653 21.2493 30.2653 21.9933C30.2653 22.6559 29.6282 23.2451 28.9392 23.2451C28.7078 23.2451 28.3992 23.1292 28.1467 22.9026C27.8993 22.6804 27.7248 22.3692 27.7248 21.9933C27.7248 21.3027 28.2671 20.7269 28.9392 20.7269Z" fill="#0094E0" stroke="#0094E0" stroke-width="0.5"/>
</g>
<defs>
<clipPath id="clip0_142_567">
<rect width="42" height="42" fill="white"/>
</clipPath>
</defs>
</svg>
