<svg width="14" height="14" viewBox="0 0 14 14" fill="none" xmlns="http://www.w3.org/2000/svg">
<path d="M7.85614 2.92323L9.72074 4.81268C10.2935 5.38787 11.2249 4.39906 10.6837 3.81094L7.61251 0.6628C7.42054 0.469617 6.95597 0.423093 6.71024 0.6628L3.64868 3.82061C3.12039 4.35167 4.04907 5.311 4.56624 4.88273L6.4514 2.92323V9.95347C6.4514 10.7874 7.85614 10.7745 7.85614 9.95347V2.92323Z" fill="#00AC69"/>
<path d="M0 8.46603C0 7.49611 1.32938 7.49611 1.32938 8.46603V11.3249C1.32938 11.636 1.62167 12.0752 2.09814 12.0752H11.9462C12.342 12.0752 12.6761 11.6822 12.6761 11.3425V8.43038C12.6761 7.51521 13.9981 7.52929 13.9981 8.43038V11.3425C14.0513 12.6216 12.9883 13.5 11.9462 13.5H2.09814C1.253 13.5 0 12.9979 0 11.3249V8.46603Z" fill="#00AC69"/>
</svg>
