<svg width="18" height="18" viewBox="0 0 18 18" fill="none" xmlns="http://www.w3.org/2000/svg">
<path d="M9 18C13.9706 18 18 13.9706 18 9C18 4.02944 13.9706 0 9 0C4.02944 0 0 4.02944 0 9C0 13.9706 4.02944 18 9 18Z" fill="#DB2B39"/>
<path d="M5.38936 5.25317C4.76804 5.25317 4.40625 5.56615 4.40625 6.18747C4.40625 6.47575 4.51469 6.73872 4.693 6.93779C4.693 6.93779 5.52959 7.73004 6.08638 8.18777C7.23333 9.13068 8.66715 7.70565 7.34855 6.61917C7.1045 6.41809 6.06469 5.47833 6.06469 5.47833C5.87661 5.33696 5.64277 5.25317 5.38936 5.25317Z" fill="white"/>
<path d="M12.6111 5.25317C13.2324 5.25317 13.5942 5.56615 13.5942 6.18747C13.5942 6.47575 13.4858 6.73872 13.3075 6.93779C13.3075 6.93779 12.4709 7.73004 11.9141 8.18777C10.7672 9.13068 9.33333 7.70565 10.6519 6.61917C10.896 6.41809 11.9358 5.47833 11.9358 5.47833C12.1239 5.33696 12.3577 5.25317 12.6111 5.25317Z" fill="white"/>
<path d="M12.9001 13.4957C12.5036 12.8126 11.9347 12.2457 11.2503 11.8516C10.5658 11.4575 9.78989 11.25 9.0001 11.25C8.21031 11.25 7.43437 11.4575 6.74993 11.8516C6.0655 12.2457 5.49658 12.8126 5.1001 13.4957" stroke="white" stroke-width="1.3" stroke-linecap="round" stroke-linejoin="round"/>
</svg>
