<svg width="12" height="16" viewBox="0 0 12 16" fill="none" xmlns="http://www.w3.org/2000/svg">
<path d="M5.99998 15C5.80506 14.9983 5.61264 14.9559 5.43504 14.8756C5.25745 14.7952 5.09859 14.6786 4.96864 14.5333C3.26531 12.6667 0.399978 9.11533 0.399978 6.768C0.378776 5.26082 0.956612 3.80684 2.00659 2.72537C3.05656 1.64389 4.49283 1.02334 5.99998 1C7.50712 1.02334 8.94339 1.64389 9.99337 2.72537C11.0433 3.80684 11.6212 5.26082 11.6 6.768C11.6 9.10133 8.73464 12.6433 7.03131 14.538C6.90095 14.6824 6.74191 14.7981 6.56433 14.8777C6.38676 14.9572 6.19455 14.9989 5.99998 15ZM5.99998 1.93333C4.74076 1.95787 3.54259 2.48046 2.6679 3.38663C1.79322 4.29281 1.31332 5.5087 1.33331 6.768C1.33331 8.23333 2.95264 10.9027 5.66398 13.9127C5.70751 13.9578 5.7597 13.9938 5.81743 14.0183C5.87516 14.0428 5.93725 14.0555 5.99998 14.0555C6.06271 14.0555 6.12479 14.0428 6.18252 14.0183C6.24025 13.9938 6.29244 13.9578 6.33598 13.9127C9.04731 10.9027 10.6666 8.23333 10.6666 6.768C10.6866 5.5087 10.2067 4.29281 9.33205 3.38663C8.45736 2.48046 7.25919 1.95787 5.99998 1.93333Z" fill="#00AC69" stroke="#00AC69" stroke-width="0.6"/>
<path d="M5.99995 9.4C5.44616 9.4 4.90481 9.23578 4.44436 8.92812C3.9839 8.62045 3.62502 8.18315 3.41309 7.67151C3.20116 7.15988 3.14572 6.5969 3.25375 6.05375C3.36179 5.5106 3.62847 5.01169 4.02005 4.6201C4.41164 4.22852 4.91055 3.96184 5.4537 3.8538C5.99685 3.74576 6.55983 3.80121 7.07147 4.01314C7.5831 4.22506 8.0204 4.58395 8.32807 5.0444C8.63573 5.50486 8.79995 6.04621 8.79995 6.6C8.79995 7.34261 8.50495 8.0548 7.97985 8.5799C7.45475 9.105 6.74256 9.4 5.99995 9.4ZM5.99995 4.73333C5.63076 4.73333 5.26986 4.84281 4.96289 5.04792C4.65592 5.25304 4.41666 5.54457 4.27538 5.88566C4.13409 6.22675 4.09713 6.60207 4.16915 6.96417C4.24118 7.32627 4.41896 7.65888 4.68002 7.91993C4.94108 8.18099 5.27369 8.35877 5.63578 8.4308C5.99788 8.50283 6.37321 8.46586 6.71429 8.32458C7.05538 8.18329 7.34692 7.94404 7.55203 7.63707C7.75714 7.33009 7.86662 6.96919 7.86662 6.6C7.86662 6.10493 7.66995 5.63014 7.31988 5.28007C6.96982 4.93 6.49502 4.73333 5.99995 4.73333Z" fill="#00AC69" stroke="#00AC69" stroke-width="0.6"/>
</svg>
