<svg width="18" height="18" viewBox="0 0 18 18" fill="none" xmlns="http://www.w3.org/2000/svg">
<path d="M9 18C13.9706 18 18 13.9706 18 9C18 4.02944 13.9706 0 9 0C4.02944 0 0 4.02944 0 9C0 13.9706 4.02944 18 9 18Z" fill="	#EE6123"/>
<path d="M6.125 8.25C6.74632 8.25 7.25 7.74632 7.25 7.125C7.25 6.50368 6.74632 6 6.125 6C5.50368 6 5 6.50368 5 7.125C5 7.74632 5.50368 8.25 6.125 8.25Z" fill="white"/>
<path d="M11.625 8.25C12.2463 8.25 12.75 7.74632 12.75 7.125C12.75 6.50368 12.2463 6 11.625 6C11.0037 6 10.5 6.50368 10.5 7.125C10.5 7.74632 11.0037 8.25 11.625 8.25Z" fill="white"/>
<path d="M12.9001 13.5C12.5036 12.8169 11.9347 12.25 11.2503 11.8559C10.5658 11.4618 9.78989 11.2543 9.0001 11.2543C8.21031 11.2543 7.43437 11.4618 6.74993 11.8559C6.0655 12.25 5.49658 12.8169 5.1001 13.5" stroke="white" stroke-width="1.3" stroke-linecap="round" stroke-linejoin="round"/>
</svg>
