<svg width="18" height="18" viewBox="0 0 18 18" fill="none" xmlns="http://www.w3.org/2000/svg">
<path d="M9 18C13.9706 18 18 13.9706 18 9C18 4.02944 13.9706 0 9 0C4.02944 0 0 4.02944 0 9C0 13.9706 4.02944 18 9 18Z" fill="#939799"/>
<path d="M6.125 8.25C6.74632 8.25 7.25 7.74632 7.25 7.125C7.25 6.50368 6.74632 6 6.125 6C5.50368 6 5 6.50368 5 7.125C5 7.74632 5.50368 8.25 6.125 8.25Z" fill="white"/>
<path d="M11.625 8.25C12.2463 8.25 12.75 7.74632 12.75 7.125C12.75 6.50368 12.2463 6 11.625 6C11.0037 6 10.5 6.50368 10.5 7.125C10.5 7.74632 11.0037 8.25 11.625 8.25Z" fill="white"/>
<path d="M12 13.0232C11.695 13.0221 11.2573 13.0204 10.7309 13.0183C10.2044 13.0163 9.6075 13.014 8.99998 13.0116C8.39245 13.0093 7.79558 13.007 7.26909 13.0049C6.74261 13.0029 6.30498 13.0012 6 13" stroke="white" stroke-width="1.5" stroke-linecap="round" stroke-linejoin="round"/>
</svg>
