<svg width="18" height="18" viewBox="0 0 18 18" fill="none" xmlns="http://www.w3.org/2000/svg">
<path d="M9 18C13.9706 18 18 13.9706 18 9C18 4.02944 13.9706 0 9 0C4.02944 0 0 4.02944 0 9C0 13.9706 4.02944 18 9 18Z" fill="#00AC69"/>
<path d="M6.125 8.25C6.74632 8.25 7.25 7.74632 7.25 7.125C7.25 6.50368 6.74632 6 6.125 6C5.50368 6 5 6.50368 5 7.125C5 7.74632 5.50368 8.25 6.125 8.25Z" fill="white"/>
<path d="M11.625 8.25C12.2463 8.25 12.75 7.74632 12.75 7.125C12.75 6.50368 12.2463 6 11.625 6C11.0037 6 10.5 6.50368 10.5 7.125C10.5 7.74632 11.0037 8.25 11.625 8.25Z" fill="white"/>
<path d="M12.9001 11.25C12.5036 11.9331 11.9347 12.5 11.2503 12.8941C10.5658 13.2882 9.78989 13.4956 9.0001 13.4956C8.21031 13.4956 7.43437 13.2882 6.74993 12.8941C6.0655 12.5 5.49658 11.9331 5.1001 11.25" stroke="white" stroke-width="1.5" stroke-linecap="round" stroke-linejoin="round"/>
</svg>
