<svg width="24" height="24" viewBox="0 0 24 24" fill="none" xmlns="http://www.w3.org/2000/svg">
<path d="M12 12C14.2091 12 16 10.2092 16 8.00003C16 5.79089 14.2091 4.00003 12 4.00003C9.79086 4.00003 8 5.79089 8 8.00003C8 10.2092 9.79086 12 12 12Z" fill="#DB2B39"/>
<path d="M20 19V20C20 20.2652 19.8946 20.5196 19.7071 20.7071C19.5196 20.8947 19.2652 21 19 21H5C4.73478 21 4.48043 20.8947 4.29289 20.7071C4.10536 20.5196 4 20.2652 4 20V19C4 17.4087 4.63214 15.8826 5.75736 14.7574C6.88258 13.6322 8.4087 13 10 13H14C15.5913 13 17.1174 13.6322 18.2426 14.7574C19.3679 15.8826 20 17.4087 20 19Z" fill="#DB2B39"/>
</svg>
